<?xml version="1.0" standalone="no"?>
<!DOCTYPE svg PUBLIC "-//W3C//DTD SVG 20010904//EN"
 "http://www.w3.org/TR/2001/REC-SVG-20010904/DTD/svg10.dtd">
<svg version="1.0" xmlns="http://www.w3.org/2000/svg"
 width="402.000000pt" height="402.000000pt" viewBox="0 0 402.000000 402.000000"
 preserveAspectRatio="xMidYMid meet">
<metadata>
Created by potrace 1.11, written by Peter Selinger 2001-2013
</metadata>
<g transform="translate(0.000000,402.000000) scale(0.100000,-0.100000)"
fill="#000000" stroke="none">
<path d="M3139 3371 c-116 -38 -278 -181 -335 -296 -39 -82 -45 -176 -14 -239
31 -65 108 -131 170 -146 90 -22 159 3 362 130 61 38 126 73 146 76 70 13 122
-48 98 -117 -27 -77 -147 -193 -214 -205 -20 -4 -50 -2 -69 5 -19 7 -36 11
-39 8 -2 -2 -31 -40 -64 -83 l-59 -79 47 -23 c39 -19 59 -22 122 -19 107 5
177 44 301 167 72 72 104 112 130 164 80 163 36 311 -114 388 -34 17 -54 20
-111 16 -82 -6 -121 -23 -293 -130 -132 -82 -179 -94 -218 -58 -33 31 -32 75
3 131 66 104 161 149 242 116 10 -4 35 19 79 74 35 44 62 81 60 83 -39 34
-173 56 -230 37z"/>
<path d="M2375 2666 c-60 -28 -148 -119 -176 -180 -25 -58 -33 -121 -21 -173
l10 -43 -51 45 c-29 25 -56 45 -62 45 -6 0 -45 -35 -88 -78 l-77 -77 453 -453
452 -452 85 85 85 85 -180 180 c-144 145 -173 178 -147 169 46 -16 139 -6 192
21 63 32 136 105 165 165 74 150 17 327 -159 500 -132 130 -241 185 -363 185
-50 0 -81 -6 -118 -24z m124 -211 c93 -32 236 -164 291 -267 60 -112 35 -210
-65 -258 -85 -41 -184 -7 -302 104 -78 73 -139 170 -149 233 -12 81 36 160
116 192 35 14 62 13 109 -4z"/>
<path d="M3575 2442 c-37 -23 -93 -86 -106 -119 -34 -91 15 -203 124 -277 95
-65 174 -58 258 21 51 48 72 92 71 154 -1 58 -9 63 -52 27 -32 -26 -40 -40
-40 -66 0 -40 -46 -92 -81 -92 -28 0 -109 47 -109 63 0 6 46 57 102 114 l101
101 -29 26 c-73 64 -177 85 -239 48z m119 -89 l25 -20 -68 -67 -68 -68 -22 35
c-29 48 -27 88 6 122 23 22 34 26 65 22 21 -3 48 -14 62 -24z"/>
<path d="M3145 2250 l-39 -40 84 -86 c77 -78 82 -85 54 -80 -39 9 -81 -7 -122
-47 -71 -68 -60 -164 30 -262 105 -115 212 -146 283 -84 49 44 68 84 62 131
-5 40 -1 41 36 10 16 -15 21 -13 56 24 l38 39 -222 217 -221 218 -39 -40z
m197 -280 c48 -32 90 -85 108 -136 14 -39 0 -77 -35 -100 -40 -26 -86 -11
-154 52 -92 85 -110 156 -49 198 34 24 79 20 130 -14z"/>
<path d="M1625 1916 c-60 -28 -148 -119 -176 -180 -25 -58 -33 -121 -21 -173
l10 -43 -51 45 c-29 25 -56 45 -62 45 -6 0 -45 -35 -88 -78 l-77 -77 453 -453
452 -452 85 85 85 85 -180 180 c-144 145 -173 178 -147 169 46 -16 139 -6 192
21 63 32 136 105 165 165 74 150 17 327 -159 500 -132 130 -241 185 -363 185
-50 0 -81 -6 -118 -24z m124 -211 c93 -32 236 -164 291 -267 60 -112 35 -210
-65 -258 -85 -41 -184 -7 -302 104 -78 73 -139 170 -149 233 -12 81 36 160
116 192 35 14 62 13 109 -4z"/>
<path d="M3137 1522 l-37 -38 43 -42 43 -42 37 38 37 38 -43 42 -43 42 -37
-38z"/>
<path d="M909 1157 c-151 -43 -318 -233 -336 -384 -6 -57 16 -147 46 -184 l19
-23 43 38 c24 22 65 59 91 83 l48 43 -20 33 c-11 17 -20 46 -20 62 0 64 72
135 136 135 32 0 106 -42 138 -78 19 -21 18 -22 -81 -125 -59 -63 -113 -130
-133 -168 -31 -57 -35 -72 -35 -139 1 -90 20 -132 92 -202 125 -122 276 -117
396 11 77 82 92 121 92 233 0 95 0 97 20 84 37 -24 96 -38 131 -32 40 8 140
96 169 150 l19 36 -44 45 -44 45 -31 -30 c-57 -55 -67 -50 -265 145 -138 135
-191 181 -234 201 -67 30 -136 38 -197 21z m296 -428 c84 -101 94 -214 24
-293 -53 -61 -123 -55 -186 17 -39 45 -48 85 -30 130 17 39 135 176 154 176 6
1 23 -13 38 -30z"/>
</g>
</svg>
